<?xml version="1.0" encoding="UTF-8" standalone="no"?>
<!DOCTYPE svg PUBLIC "-//W3C//DTD SVG 1.1//EN" "http://www.w3.org/Graphics/SVG/1.1/DTD/svg11.dtd">
<svg width="100%" height="100%" viewBox="0 0 700 128" version="1.1" xmlns="http://www.w3.org/2000/svg" xmlns:xlink="http://www.w3.org/1999/xlink" xml:space="preserve" xmlns:serif="http://www.serif.com/" style="fill-rule:evenodd;clip-rule:evenodd;stroke-linejoin:round;stroke-miterlimit:1.41421;">
    <path d="M365.6,97L335.6,59L332.6,59L332.6,102.7L335.7,102.7L335.7,63.9L366.3,102.7L368.7,102.7L368.7,59L365.6,59L365.6,97ZM399,58.2C385.8,58.2 377.1,68.9 377.1,80.8L377.1,81C377.1,92.9 385.7,103.5 398.9,103.5C412.1,103.5 420.8,92.8 420.8,80.9L420.8,80.8C420.8,68.8 412.2,58.2 399,58.2ZM417.5,81C417.5,91.8 409.8,100.5 399,100.5C388.2,100.5 380.4,91.6 380.4,80.9L380.4,80.8C380.4,70 388.1,61.3 398.9,61.3C409.7,61.3 417.5,70.2 417.5,80.9L417.5,81ZM320.2,97L290.2,59L287.2,59L287.2,102.7L290.3,102.7L290.3,63.9L320.9,102.7L323.3,102.7L323.3,59L320.2,59L320.2,97ZM274.9,102.7L278.1,102.7L278.1,59L274.9,59L274.9,102.7ZM477.2,58.7L456.9,102.7L460.3,102.7L465.8,90.5L491.5,90.5L497,102.7L500.5,102.7L480.2,58.7L477.2,58.7ZM467.2,87.5L478.7,62.2L490.1,87.5L467.2,87.5ZM461.3,59L444.2,99.2L427.2,59L423.6,59L442.7,103L445.6,103L464.7,59L461.3,59ZM538.2,102.7L541.4,102.7L541.4,59L538.2,59L538.2,102.7ZM495.8,62L511,62L511,102.7L514.2,102.7L514.2,62L529.4,62L529.4,59L495.8,59L495.8,62ZM573.4,58.2C560.2,58.2 551.5,68.9 551.5,80.8L551.5,81C551.5,92.9 560.1,103.5 573.3,103.5C586.5,103.5 595.2,92.8 595.2,80.9L595.2,80.8C595.2,68.8 586.5,58.2 573.4,58.2ZM591.8,81C591.8,91.8 584.1,100.5 573.3,100.5C562.5,100.5 554.7,91.6 554.7,80.9L554.7,80.8C554.7,70 562.4,61.3 573.2,61.3C584,61.3 591.8,70.2 591.8,80.9L591.8,81ZM637.8,59L637.8,97L607.8,59L604.8,59L604.8,102.7L607.9,102.7L607.9,63.9L638.5,102.7L640.9,102.7L640.9,59L637.8,59Z" style="fill:white;fill-rule:nonzero;"/>
    <path d="M3.3,82.1L28.2,82.1L28.2,79.1L3.3,79.1L3.3,62L31,62L31,59L0,59L0,102.7L31.3,102.7L31.3,99.7L3.3,99.7L3.3,82.1ZM73.3,97L43.3,59L40.3,59L40.3,102.7L43.4,102.7L43.4,63.9L74,102.7L76.4,102.7L76.4,59L73.3,59L73.3,97ZM90,82.1L114.9,82.1L114.9,79.1L90,79.1L90,62L117.7,62L117.7,59L86.7,59L86.7,102.7L118,102.7L118,99.7L90,99.7L90,82.1ZM160.8,71.5L160.8,71.4C160.8,68.3 159.6,65.3 157.5,63.3C154.9,60.7 150.6,59 145.3,59L127,59L127,102.7L130.2,102.7L130.2,84.6L144.4,84.6L158.3,102.7L162.4,102.7L148,84C155.4,83 160.8,78.8 160.8,71.5ZM130.2,81.6L130.2,62L145.1,62C153,62 157.6,65.7 157.6,71.5L157.6,71.6C157.6,77.9 152.2,81.6 144.9,81.6L130.2,81.6ZM189.9,83L204.4,83L204.4,95.5C201.2,98.2 196.1,100.5 190.5,100.5C178.9,100.5 171.9,92.1 171.9,80.8L171.9,80.7C171.9,70.2 179.3,61.2 189.9,61.2C196.5,61.2 200.5,63.4 203.9,66.4L206,64C201.6,60.4 197.2,58.3 190.1,58.3C177.1,58.3 168.6,69.1 168.6,80.9L168.6,81C168.6,93.3 176.7,103.5 190.5,103.5C197.6,103.5 203.7,100.4 207.6,97L207.6,80L189.9,80L189.9,83ZM248.1,59L231.8,82.5L215.5,59L211.5,59L230.1,85.4L230.1,102.7L233.3,102.7L233.3,85.3L252,59L248.1,59Z" style="fill:white;fill-rule:nonzero;"/>
    <g>
        <path d="M629.6,42.4C626.4,36.5 623.2,30.6 620,24.6C617.1,19.2 614.1,13.7 611.2,8.3C611.1,8.2 611,8.1 610.6,7.6C610.7,8.6 610.8,9.1 610.9,9.6C612.9,16.2 614.8,22.9 616.7,29.5C616.9,30.2 617.2,30.8 617.7,31.4C618.9,32.7 620.1,34.1 621.3,35.4C624,38.4 626.7,41.4 629.3,44.5C629.9,45.2 630.5,46 631.2,46.7C631.3,46.8 631.4,46.9 631.6,47C631.6,47 631.7,47 631.8,47L631.9,46.9C632,46.6 631.8,46.4 631.7,46.1C631,44.9 630.3,43.7 629.6,42.4Z" style="fill:url(#_Radial1);fill-rule:nonzero;"/>
        <path d="M627.8,50.1C626.7,49.2 625.6,48.4 624.5,47.5C619.3,43.2 614.2,39 609,34.7C604.3,30.8 599.6,26.8 594.8,22.9C594.7,22.8 594.5,22.8 594,22.5C594.5,23.3 594.7,23.8 595,24.3C599.3,29.7 603.5,35.1 607.8,40.6C608.3,41.2 608.8,41.6 609.5,42C611.1,42.8 612.7,43.6 614.3,44.3C617.9,46 621.5,47.9 625.1,49.6C625.9,50 626.8,50.5 627.6,50.9C627.7,51 627.9,51 628.1,51.1C628.1,51.1 628.2,51.1 628.2,51C628.2,51 628.2,50.9 628.2,50.8C628.2,50.4 628,50.3 627.8,50.1Z" style="fill:url(#_Radial2);fill-rule:nonzero;"/>
        <path d="M665.8,33.6C664.6,35 663.4,36.3 662.3,37.7C659.7,40.8 657,43.7 654.3,46.7C653.7,47.4 653,48.1 652.4,48.8C652.3,48.9 652.2,49.1 652.1,49.2C652.1,49.2 652.1,49.3 652.1,49.4L652.2,49.5C652.5,49.5 652.7,49.4 653,49.2C654.1,48.4 655.2,47.5 656.4,46.7C661.9,42.8 667.3,39 672.8,35.1C677.8,31.6 682.8,28 687.8,24.5C687.9,24.4 688,24.3 688.4,23.8C687.5,24 687,24.1 686.4,24.3C680.1,27 673.8,29.6 667.5,32.3C666.8,32.7 666.3,33.1 665.8,33.6Z" style="fill:url(#_Radial3);fill-rule:nonzero;"/>
        <path d="M673.3,44.5C671.7,45.3 670.1,46.1 668.5,46.9C664.9,48.7 661.3,50.5 657.7,52.2C656.9,52.6 656,53 655.1,53.4C655,53.5 654.8,53.6 654.7,53.7C654.7,53.7 654.7,53.8 654.7,53.9L654.8,54C655.1,54.1 655.3,54.1 655.6,54C656.9,53.7 658.3,53.3 659.6,53C666.1,51.5 672.6,50 679.1,48.5C685,47.1 691,45.8 696.9,44.4C697.1,44.4 697.2,44.3 697.7,44C696.8,43.9 696.2,43.7 695.7,43.8C688.9,43.9 682.1,44 675.2,44C674.6,44 673.9,44.2 673.3,44.5Z" style="fill:url(#_Radial4);fill-rule:nonzero;"/>
        <path d="M636.4,39.5C635.5,32.8 634.6,26.1 633.7,19.4C632.9,13.3 632.1,7.1 631.2,1C631.2,0.8 631.1,0.7 630.9,0.1C630.7,1 630.5,1.6 630.5,2.1C630,9 629.5,15.9 628.9,22.8C628.8,23.6 628.9,24.2 629.2,24.9C629.9,26.6 630.5,28.3 631.2,29.9C632.7,33.7 634.1,37.5 635.5,41.3C635.8,42.2 636.1,43.1 636.5,44C636.6,44.2 636.6,44.3 636.7,44.4C636.7,44.4 636.8,44.4 636.9,44.4L637,44.3C637.2,44 637.1,43.8 637.1,43.5C636.8,42.3 636.6,40.9 636.4,39.5Z" style="fill:url(#_Radial5);fill-rule:nonzero;"/>
        <path d="M691.8,85.5C686.7,80.9 681.6,76.3 676.5,71.7C675.9,71.2 675.3,70.9 674.6,70.7C672.9,70.2 671.2,69.7 669.5,69.3C665.6,68.2 661.8,67.1 658,65.9C657.1,65.6 656.2,65.3 655.3,65.1C655.1,65.1 655,65 654.8,65L654.7,65.1C654.7,65.1 654.7,65.2 654.7,65.3C654.8,65.6 655,65.7 655.3,65.9C656.5,66.6 657.7,67.2 659,67.9C664.8,71.2 670.6,74.5 676.4,77.8C681.7,80.8 687,83.9 692.4,86.9C692.5,87 692.7,87 693.3,87.1C692.5,86.3 692.2,85.9 691.8,85.5Z" style="fill:url(#_Radial6);fill-rule:nonzero;"/>
        <path d="M697.6,65C691.2,62.6 684.8,60.2 678.4,57.8C677.7,57.5 677,57.4 676.3,57.5C674.5,57.7 672.8,57.8 671,58C667,58.4 663,58.7 659.1,59.1C658.2,59.2 657.2,59.2 656.3,59.3C656.1,59.3 656,59.4 655.8,59.4L655.7,59.5C655.7,59.5 655.7,59.6 655.8,59.6C656,59.8 656.3,59.9 656.5,59.9C657.9,60.1 659.3,60.2 660.6,60.4C667.2,61.4 673.8,62.3 680.4,63.3C686.4,64.2 692.5,65.1 698.5,66C698.7,66 698.8,66 699.4,65.9C698.6,65.5 698.1,65.2 697.6,65Z" style="fill:url(#_Radial7);fill-rule:nonzero;"/>
        <path d="M669.6,84C669.3,83.3 668.8,82.8 668.2,82.3C666.8,81.2 665.4,80.1 663.9,79.1C660.7,76.7 657.5,74.2 654.3,71.8C653.5,71.2 652.8,70.6 652.1,70C652,69.9 651.8,69.8 651.7,69.8C651.7,69.8 651.6,69.8 651.6,69.9L651.5,70C651.5,70.3 651.7,70.5 651.9,70.7C652.8,71.8 653.7,72.8 654.6,73.9C658.9,79.1 663.1,84.3 667.4,89.5C671.3,94.3 675.2,99 679.1,103.8C679.2,103.9 679.4,104 679.8,104.3C679.5,103.4 679.4,102.9 679.1,102.4C675.9,96.3 672.7,90.2 669.6,84Z" style="fill:url(#_Radial8);fill-rule:nonzero;"/>
        <path d="M672.3,9.6C672.4,9.5 672.4,9.3 672.6,8.7C671.8,9.3 671.4,9.5 671,9.9C666.1,14.7 661.1,19.5 656.2,24.2C655.7,24.7 655.3,25.3 655,26C654.4,27.7 653.7,29.4 653.1,31.1C651.7,34.9 650.2,38.7 648.8,42.5C648.5,43.4 648.1,44.3 647.7,45.2C647.6,45.4 647.6,45.5 647.6,45.7L647.7,45.8C647.7,45.8 647.8,45.8 647.9,45.8C648.2,45.7 648.3,45.5 648.5,45.3C649.3,44.1 650,42.9 650.8,41.8C654.5,36.2 658.3,30.6 662,25C665.4,19.9 668.9,14.8 672.3,9.6Z" style="fill:url(#_Radial9);fill-rule:nonzero;"/>
        <path d="M652.6,1.4C652.6,1.2 652.6,1.1 652.6,0.5C652.1,1.3 651.7,1.7 651.5,2.2C648.6,8.5 645.7,14.7 642.7,21C642.4,21.7 642.2,22.4 642.2,23.1C642.2,24.9 642.2,26.7 642.3,28.5C642.4,32.6 642.3,36.6 642.3,40.7C642.3,41.7 642.3,42.6 642.2,43.6C642.2,43.8 642.2,43.9 642.3,44.1L642.4,44.2L642.5,44.2C642.7,44 642.8,43.7 642.9,43.5C643.2,42.1 643.5,40.7 643.8,39.4C645.3,32.8 646.8,26.2 648.3,19.7C649.7,13.5 651.2,7.5 652.6,1.4Z" style="fill:url(#_Radial10);fill-rule:nonzero;"/>
    </g>
    <path d="M637.6,127.6C639.8,127.6 641.2,126.8 642.4,125.5L641.1,124.1C640.1,125 639.2,125.6 637.7,125.6C635.4,125.6 633.8,123.7 633.8,121.4C633.8,119.1 635.4,117.2 637.7,117.2C639,117.2 640.1,117.8 641,118.7L642.3,117.2C641.2,116.1 639.9,115.4 637.7,115.4C634.1,115.4 631.6,118.2 631.6,121.5C631.6,124.9 634.2,127.6 637.6,127.6ZM620.8,127.4L629.1,127.4L629.1,125.5L622.9,125.5L622.9,115.6L620.8,115.6L620.8,127.4ZM608.9,127.4L617.2,127.4L617.2,125.5L611,125.5L611,115.6L608.9,115.6L608.9,127.4ZM592.1,127.4L594.2,127.4L594.2,122.7L598.9,115.6L596.5,115.6L593.2,120.8L589.9,115.6L587.5,115.6L592.2,122.8L592.2,127.4L592.1,127.4ZM580,127.6C582.1,127.6 583.8,126.8 584.9,125.8L584.9,120.8L579.9,120.8L579.9,122.6L582.9,122.6L582.9,124.8C582.2,125.3 581.2,125.7 580.1,125.7C577.7,125.7 576.1,123.9 576.1,121.5C576.1,119.2 577.7,117.3 579.9,117.3C581.4,117.3 582.3,117.8 583.2,118.6L584.5,117C583.3,116 582,115.4 580,115.4C576.4,115.4 573.9,118.2 573.9,121.5C573.9,124.9 576.3,127.6 580,127.6ZM564.2,125.6C561.9,125.6 560.2,123.7 560.2,121.4C560.2,119.1 561.8,117.2 564.2,117.2C566.5,117.2 568.2,119.1 568.2,121.4C568.2,123.8 566.5,125.6 564.2,125.6ZM564.2,127.6C567.8,127.6 570.4,124.8 570.4,121.5C570.4,118.2 567.9,115.4 564.3,115.4C560.7,115.4 558.1,118.2 558.1,121.5C558,124.8 560.6,127.6 564.2,127.6ZM547.3,127.4L555.6,127.4L555.6,125.5L549.4,125.5L549.4,115.6L547.3,115.6L547.3,127.4ZM537,125.6C534.7,125.6 533,123.7 533,121.4C533,119.1 534.6,117.2 537,117.2C539.3,117.2 541,119.1 541,121.4C541,123.8 539.4,125.6 537,125.6ZM537,127.6C540.6,127.6 543.2,124.8 543.2,121.5C543.2,118.2 540.7,115.4 537.1,115.4C533.5,115.4 530.9,118.2 530.9,121.5C530.9,124.8 533.4,127.6 537,127.6ZM516.5,127.4L518.5,127.4L518.5,119L525,127.4L526.7,127.4L526.7,115.6L524.7,115.6L524.7,123.8L518.4,115.6L516.5,115.6L516.5,127.4ZM502.2,127.4L504.3,127.4L504.3,122.4L509.9,122.4L509.9,127.4L512,127.4L512,115.6L509.9,115.6L509.9,120.5L504.3,120.5L504.3,115.6L502.2,115.6L502.2,127.4ZM493.7,127.6C495.9,127.6 497.3,126.8 498.5,125.5L497.2,124.1C496.2,125 495.3,125.6 493.8,125.6C491.5,125.6 489.9,123.7 489.9,121.4C489.9,119.1 491.5,117.2 493.8,117.2C495.1,117.2 496.2,117.8 497.1,118.7L498.4,117.2C497.3,116.1 496,115.4 493.8,115.4C490.2,115.4 487.7,118.2 487.7,121.5C487.7,124.9 490.3,127.6 493.7,127.6ZM475.4,127.4L484.2,127.4L484.2,125.5L477.5,125.5L477.5,122.3L483.4,122.3L483.4,120.4L477.5,120.4L477.5,117.3L484.2,117.3L484.2,115.4L475.5,115.4L475.5,127.4L475.4,127.4ZM465.8,127.4L467.9,127.4L467.9,117.5L471.6,117.5L471.6,115.6L462,115.6L462,117.5L465.7,117.5L465.7,127.4L465.8,127.4ZM446.3,125.8C445.2,125.8 444.3,125.1 444.3,124.1C444.3,123.3 444.8,122.6 445.9,122.1L448.5,124.8C447.8,125.4 447.1,125.8 446.3,125.8ZM446.6,120.2C445.9,119.5 445.7,119 445.7,118.4C445.7,117.6 446.3,117 447.1,117C447.9,117 448.4,117.5 448.4,118.3C448.4,119.2 447.8,119.7 446.6,120.2ZM451.2,127.6L452.7,126.5L450.8,124.6C451.4,123.8 451.9,122.8 452.4,121.9L450.8,121.1C450.4,121.9 450,122.7 449.5,123.4L447.5,121.3C449.1,120.7 450.1,119.8 450.1,118.2C450.1,116.6 448.8,115.3 447,115.3C444.9,115.3 443.6,116.7 443.6,118.3C443.6,119.2 443.9,119.9 444.6,120.8C443,121.5 442.1,122.6 442.1,124.1C442.1,126.1 443.7,127.5 445.9,127.5C447.3,127.5 448.5,126.9 449.5,126L451.2,127.6ZM426.3,127.4L428.4,127.4L428.4,122.7L433.1,115.6L430.7,115.6L427.4,120.8L424.1,115.6L421.7,115.6L426.4,122.8L426.4,127.4L426.3,127.4ZM414.5,127.6C416.7,127.6 418.1,126.8 419.3,125.5L418,124.1C417,125 416.1,125.6 414.6,125.6C412.3,125.6 410.7,123.7 410.7,121.4C410.7,119.1 412.3,117.2 414.6,117.2C415.9,117.2 417,117.8 417.9,118.7L419.2,117.2C418.1,116.1 416.8,115.4 414.6,115.4C411,115.4 408.5,118.2 408.5,121.5C408.5,124.9 411.1,127.6 414.5,127.6ZM402.3,127.4L404.4,127.4L404.4,115.6L402.3,115.6L402.3,127.4ZM390.2,127.4L398.5,127.4L398.5,125.5L392.3,125.5L392.3,115.6L390.2,115.6L390.2,127.4ZM380,125.6C377.7,125.6 376,123.7 376,121.4C376,119.1 377.6,117.2 380,117.2C382.3,117.2 384,119.1 384,121.4C383.9,123.8 382.3,125.6 380,125.6ZM379.9,127.6C383.5,127.6 386.1,124.8 386.1,121.5C386.1,118.2 383.6,115.4 380,115.4C376.4,115.4 373.8,118.2 373.8,121.5C373.8,124.8 376.3,127.6 379.9,127.6ZM363.6,121.7L363.6,117.4L366,117.4C367.5,117.4 368.5,118.1 368.5,119.5C368.5,120.7 367.5,121.6 366,121.6L363.6,121.6L363.6,121.7ZM361.5,127.4L363.6,127.4L363.6,123.6L365.9,123.6C368.5,123.6 370.6,122.2 370.6,119.6C370.6,117.2 368.9,115.6 366.1,115.6L361.5,115.6L361.5,127.4Z" style="fill:white;"/>
    <defs>
        <radialGradient id="_Radial1" cx="0" cy="0" r="1" gradientUnits="userSpaceOnUse" gradientTransform="matrix(52.4003,0,0,52.5837,636.903,48.5835)"><stop offset="0" style="stop-color:rgb(253,238,220);stop-opacity:1"/><stop offset="0.03" style="stop-color:rgb(253,238,220);stop-opacity:1"/><stop offset="0.53" style="stop-color:rgb(234,143,56);stop-opacity:1"/><stop offset="0.76" style="stop-color:rgb(221,92,16);stop-opacity:1"/><stop offset="1" style="stop-color:rgb(221,92,16);stop-opacity:1"/></radialGradient>
        <radialGradient id="_Radial2" cx="0" cy="0" r="1" gradientUnits="userSpaceOnUse" gradientTransform="matrix(45.4468,-26.0849,26.1739,45.604,634.401,50.2361)"><stop offset="0" style="stop-color:rgb(253,238,220);stop-opacity:1"/><stop offset="0.03" style="stop-color:rgb(253,238,220);stop-opacity:1"/><stop offset="0.55" style="stop-color:rgb(234,143,56);stop-opacity:1"/><stop offset="0.77" style="stop-color:rgb(221,92,16);stop-opacity:1"/><stop offset="1" style="stop-color:rgb(221,92,16);stop-opacity:1"/></radialGradient>
        <radialGradient id="_Radial3" cx="0" cy="0" r="1" gradientUnits="userSpaceOnUse" gradientTransform="matrix(12.2617,50.9436,-51.1217,12.3036,647.592,50.0542)"><stop offset="0" style="stop-color:rgb(253,238,220);stop-opacity:1"/><stop offset="0.07" style="stop-color:rgb(253,238,220);stop-opacity:1"/><stop offset="0.18" style="stop-color:rgb(248,213,176);stop-opacity:1"/><stop offset="0.36" style="stop-color:rgb(240,175,112);stop-opacity:1"/><stop offset="0.49" style="stop-color:rgb(236,152,71);stop-opacity:1"/><stop offset="0.55" style="stop-color:rgb(234,143,56);stop-opacity:1"/><stop offset="0.78" style="stop-color:rgb(221,92,16);stop-opacity:1"/><stop offset="1" style="stop-color:rgb(221,92,16);stop-opacity:1"/></radialGradient>
        <radialGradient id="_Radial4" cx="0" cy="0" r="1" gradientUnits="userSpaceOnUse" gradientTransform="matrix(-7.76572,51.8239,-52.0021,-7.79716,648.263,55.6109)"><stop offset="0" style="stop-color:rgb(253,238,220);stop-opacity:1"/><stop offset="0.06" style="stop-color:rgb(253,238,220);stop-opacity:1"/><stop offset="0.59" style="stop-color:rgb(234,143,56);stop-opacity:1"/><stop offset="0.84" style="stop-color:rgb(221,92,16);stop-opacity:1"/><stop offset="1" style="stop-color:rgb(221,92,16);stop-opacity:1"/></radialGradient>
        <radialGradient id="_Radial5" cx="0" cy="0" r="1" gradientUnits="userSpaceOnUse" gradientTransform="matrix(50.9593,12.1988,-12.2407,51.1375,639.726,47.5662)"><stop offset="0" style="stop-color:rgb(253,238,220);stop-opacity:1"/><stop offset="0.02" style="stop-color:rgb(253,238,220);stop-opacity:1"/><stop offset="0.22" style="stop-color:rgb(245,200,155);stop-opacity:1"/><stop offset="0.53" style="stop-color:rgb(234,143,56);stop-opacity:1"/><stop offset="0.75" style="stop-color:rgb(221,92,16);stop-opacity:1"/><stop offset="1" style="stop-color:rgb(221,92,16);stop-opacity:1"/></radialGradient>
        <radialGradient id="_Radial6" cx="0" cy="0" r="1" gradientUnits="userSpaceOnUse" gradientTransform="matrix(59.1385,0,0,59.1385,644.667,59.6667)"><stop offset="0" style="stop-color:rgb(253,238,220);stop-opacity:1"/><stop offset="0.04" style="stop-color:rgb(253,238,220);stop-opacity:1"/><stop offset="0.54" style="stop-color:rgb(234,143,56);stop-opacity:1"/><stop offset="0.79" style="stop-color:rgb(221,92,16);stop-opacity:1"/><stop offset="1" style="stop-color:rgb(221,92,16);stop-opacity:1"/></radialGradient>
        <radialGradient id="_Radial7" cx="0" cy="0" r="1" gradientUnits="userSpaceOnUse" gradientTransform="matrix(-9.90982,52.8219,-53.0046,-9.94207,647.88,56.7765)"><stop offset="0" style="stop-color:rgb(253,238,220);stop-opacity:1"/><stop offset="0.05" style="stop-color:rgb(253,238,220);stop-opacity:1"/><stop offset="0.58" style="stop-color:rgb(234,143,56);stop-opacity:1"/><stop offset="0.82" style="stop-color:rgb(221,92,16);stop-opacity:1"/><stop offset="1" style="stop-color:rgb(221,92,16);stop-opacity:1"/></radialGradient>
        <radialGradient id="_Radial8" cx="0" cy="0" r="1" gradientUnits="userSpaceOnUse" gradientTransform="matrix(65.4083,0,0,65.4083,639.833,56.5)"><stop offset="0" style="stop-color:rgb(253,238,220);stop-opacity:1"/><stop offset="0.1" style="stop-color:rgb(253,238,220);stop-opacity:1"/><stop offset="0.59" style="stop-color:rgb(234,143,56);stop-opacity:1"/><stop offset="0.81" style="stop-color:rgb(221,92,16);stop-opacity:1"/><stop offset="1" style="stop-color:rgb(221,92,16);stop-opacity:1"/></radialGradient>
        <radialGradient id="_Radial9" cx="0" cy="0" r="1" gradientUnits="userSpaceOnUse" gradientTransform="matrix(31.1887,42.1089,-42.2504,31.2987,646.225,50.6073)"><stop offset="0" style="stop-color:rgb(253,238,220);stop-opacity:1"/><stop offset="0.03" style="stop-color:rgb(253,238,220);stop-opacity:1"/><stop offset="0.55" style="stop-color:rgb(234,143,56);stop-opacity:1"/><stop offset="0.8" style="stop-color:rgb(221,92,16);stop-opacity:1"/><stop offset="1" style="stop-color:rgb(221,92,16);stop-opacity:1"/></radialGradient>
        <radialGradient id="_Radial10" cx="0" cy="0" r="1" gradientUnits="userSpaceOnUse" gradientTransform="matrix(42.9106,30.0725,-30.1773,43.0626,643.711,50.9275)"><stop offset="0" style="stop-color:rgb(253,238,220);stop-opacity:1"/><stop offset="0.04" style="stop-color:rgb(253,238,220);stop-opacity:1"/><stop offset="0.57" style="stop-color:rgb(234,143,56);stop-opacity:1"/><stop offset="0.82" style="stop-color:rgb(221,92,16);stop-opacity:1"/><stop offset="1" style="stop-color:rgb(221,92,16);stop-opacity:1"/></radialGradient>
    </defs>
</svg>
