<?xml version="1.0" encoding="UTF-8" standalone="no"?><!DOCTYPE svg PUBLIC "-//W3C//DTD SVG 1.1//EN" "http://www.w3.org/Graphics/SVG/1.1/DTD/svg11.dtd"><svg width="100%" height="100%" viewBox="0 0 2257 444" version="1.1" xmlns="http://www.w3.org/2000/svg" xmlns:xlink="http://www.w3.org/1999/xlink" xml:space="preserve" xmlns:serif="http://www.serif.com/" style="fill-rule:evenodd;clip-rule:evenodd;stroke-linejoin:round;stroke-miterlimit:2;"><rect id="Artboard1" x="0" y="0" width="2256.25" height="443.75" style="fill:none;"/><path d="M75.392,439.6c42.666,0 64.533,-23.733 64.533,-52.8c-0,-32.267 -25.067,-44.8 -60,-53.067c-31.2,-7.466 -49.333,-14.133 -49.333,-33.066c-0,-16.8 16.533,-31.734 39.2,-31.734c19.2,0 37.333,8.8 52.533,23.467l12.8,-16.267c-16.8,-15.466 -37.067,-26.133 -64.267,-26.133c-35.2,0 -61.333,22.933 -61.333,52.267c-0,31.733 23.2,43.2 60,51.733c32,7.467 49.333,15.2 49.333,34.667c0,16.533 -14.4,32 -42.666,32c-25.6,-0 -44.534,-10.934 -60,-26.4l-13.067,16.266c18.4,18.134 42.133,29.067 72.267,29.067Z" style="fill:#717476;fill-rule:nonzero;"/><path d="M256.725,439.867c50.933,-0 93.6,-43.467 93.6,-94.934c-0,-51.466 -42.667,-94.666 -93.6,-94.666c-50.667,-0 -93.867,43.2 -93.867,94.666c0,51.467 43.2,94.934 93.867,94.934Zm-0,-19.2c-39.467,-0 -72.8,-34.667 -72.8,-75.734c-0,-40.8 33.333,-75.466 72.8,-75.466c39.467,-0 72.533,34.666 72.533,75.466c0,41.067 -33.066,75.734 -72.533,75.734Z" style="fill:#717476;fill-rule:nonzero;"/><path d="M406.325,416.933l-0,-163.466l-20.8,-0l0,183.2l120.8,-0l-0,-19.734l-100,0Z" style="fill:#717476;fill-rule:nonzero;"/><path d="M607.392,439.867c44.8,-0 76.533,-32.8 76.533,-79.2l-0,-107.2l-20.8,-0l-0,107.2c-0,35.2 -23.2,60.266 -55.733,60.266c-32.534,0 -55.734,-25.066 -55.734,-60.266l0,-107.2l-20.8,-0l0,107.2c0,46.4 31.734,79.2 76.534,79.2Z" style="fill:#717476;fill-rule:nonzero;"/><path d="M776.725,436.667l20.8,-0l0,-163.467l61.6,0l-0,-19.733l-144,-0l0,19.733l61.6,0l-0,163.467Z" style="fill:#717476;fill-rule:nonzero;"/><rect x="892.992" y="253.467" width="20.8" height="183.2" style="fill:#717476;fill-rule:nonzero;"/><path d="M1042.86,439.867c50.934,-0 93.6,-43.467 93.6,-94.934c0,-51.466 -42.666,-94.666 -93.6,-94.666c-50.666,-0 -93.866,43.2 -93.866,94.666c-0,51.467 43.2,94.934 93.866,94.934Zm0,-19.2c-39.466,-0 -72.8,-34.667 -72.8,-75.734c0,-40.8 33.334,-75.466 72.8,-75.466c39.467,-0 72.534,34.666 72.534,75.466c-0,41.067 -33.067,75.734 -72.534,75.734Z" style="fill:#717476;fill-rule:nonzero;"/><path d="M1171.66,436.667l20.8,-0l0,-149.067l113.6,149.067l20.8,-0l0,-183.2l-20.8,-0l0,149.066l-113.6,-149.066l-20.8,-0l0,183.2Z" style="fill:#717476;fill-rule:nonzero;"/><path d="M1428.73,439.6c42.667,0 64.533,-23.733 64.533,-52.8c0,-32.267 -25.066,-44.8 -60,-53.067c-31.2,-7.466 -49.333,-14.133 -49.333,-33.066c0,-16.8 16.533,-31.734 39.2,-31.734c19.2,0 37.333,8.8 52.533,23.467l12.8,-16.267c-16.8,-15.466 -37.066,-26.133 -64.266,-26.133c-35.2,0 -61.334,22.933 -61.334,52.267c0,31.733 23.2,43.2 60,51.733c32,7.467 49.334,15.2 49.334,34.667c-0,16.533 -14.4,32 -42.667,32c-25.6,-0 -44.533,-10.934 -60,-26.4l-13.067,16.266c18.4,18.134 42.134,29.067 72.267,29.067Z" style="fill:#717476;fill-rule:nonzero;"/><path d="M140.842,26.058l-0,-19.733l-131.467,-0l0,183.2l131.467,-0l-0,-19.733l-110.4,-0l-0,-63.734l99.466,0l0,-19.733l-99.466,0l-0,-60.267l110.4,0Z" style="fill:#717476;fill-rule:nonzero;"/><path d="M176.042,189.525l20.8,-0l-0,-149.067l113.6,149.067l20.8,-0l-0,-183.2l-20.8,0l-0,149.067l-113.6,-149.067l-20.8,0l-0,183.2Z" style="fill:#717476;fill-rule:nonzero;"/><path d="M504.308,26.058l0,-19.733l-131.466,-0l-0,183.2l131.466,-0l0,-19.733l-110.4,-0l0,-63.734l99.467,0l-0,-19.733l-99.467,0l0,-60.267l110.4,0Z" style="fill:#717476;fill-rule:nonzero;"/><path d="M681.375,64.992c-0,-34.4 -29.6,-58.667 -67.467,-58.667l-74.4,-0l0,183.2l20.8,-0l0,-65.867l40.534,0l46.4,65.867l23.733,-0l-46.667,-66.4c32.8,-4 57.067,-26.933 57.067,-58.133Zm-121.067,-38.934l49.867,0c29.867,0 50.133,14.4 50.133,38.934c0,24.533 -20.266,38.933 -50.133,38.933l-49.867,-0l0,-77.867Z" style="fill:#717476;fill-rule:nonzero;"/><path d="M798.708,112.725l52.534,-0l-0,43.733c-13.6,10.4 -33.334,17.067 -50.4,17.067c-39.467,-0 -72.8,-34.667 -72.8,-75.733c-0,-40.8 33.333,-75.467 72.8,-75.467c20,-0 43.733,9.067 57.066,23.2l14.134,-14.4c-17.067,-17.333 -45.867,-28 -71.2,-28c-50.667,-0 -93.867,43.2 -93.867,94.667c-0,51.466 43.2,94.933 93.867,94.933c25.333,-0 54.133,-10.933 71.2,-28l-0,-71.733l-73.334,-0l0,19.733Z" style="fill:#717476;fill-rule:nonzero;"/><path d="M967.508,189.525l21.867,-0l-0,-74.667l73.6,-108.533l-25.067,-0l-59.466,88.8l-58.934,-88.8l-25.866,-0l73.866,108.533l0,74.667Z" style="fill:#717476;fill-rule:nonzero;"/><path d="M1169.38,189.525l20.8,-0l-0,-65.867l53.6,0c37.867,0 67.467,-24.266 67.467,-58.666c-0,-34.4 -29.6,-58.667 -67.467,-58.667l-74.4,0l-0,183.2Zm20.8,-85.6l-0,-77.867l49.867,0c29.866,0 50.133,14.4 50.133,38.934c-0,24.533 -20.267,38.933 -50.133,38.933l-49.867,0Z" style="fill:#717476;fill-rule:nonzero;"/><path d="M1430.71,192.725c50.934,-0 93.6,-43.467 93.6,-94.933c0,-51.467 -42.666,-94.667 -93.6,-94.667c-50.666,0 -93.866,43.2 -93.866,94.667c-0,51.466 43.2,94.933 93.866,94.933Zm0,-19.2c-39.466,-0 -72.8,-34.667 -72.8,-75.733c0,-40.8 33.334,-75.467 72.8,-75.467c39.467,-0 72.534,34.667 72.534,75.467c-0,41.066 -33.067,75.733 -72.534,75.733Z" style="fill:#717476;fill-rule:nonzero;"/><path d="M1580.31,169.792l0,-163.467l-20.8,0l0,183.2l120.8,-0l0,-19.733l-100,-0Z" style="fill:#717476;fill-rule:nonzero;"/><rect x="1714.17" y="6.325" width="20.8" height="183.2" style="fill:#717476;fill-rule:nonzero;"/><path d="M1864.04,192.725c25.333,-0 48.8,-10.933 65.866,-28l-14.133,-14.4c-13.333,14.133 -31.733,23.2 -51.733,23.2c-39.467,0 -72.8,-34.667 -72.8,-75.733c-0,-40.8 33.333,-75.467 72.8,-75.467c20,0 38.4,9.067 51.733,23.2l14.133,-14.4c-17.066,-17.333 -40.533,-28 -65.866,-28c-50.667,0 -93.867,43.2 -93.867,94.667c-0,51.466 43.2,94.933 93.867,94.933Z" style="fill:#717476;fill-rule:nonzero;"/><path d="M2023.51,189.525l21.867,-0l-0,-74.667l73.6,-108.533l-25.067,-0l-59.466,88.8l-58.934,-88.8l-25.866,-0l73.866,108.533l0,74.667Z" style="fill:#717476;fill-rule:nonzero;"/></svg>